<mxfile host="app.diagrams.net" modified="2021-02-15T13:49:23.524Z" agent="5.0 (X11; Linux x86_64) AppleWebKit/537.36 (KHTML, like Gecko) Chrome/88.0.4324.96 Safari/537.36" etag="Wy06jO8JuIB3PtHvtodW" version="14.2.9" type="github">
  <diagram id="BEE4BzPIRlwHzZRuPU3X" name="第 1 页">
    <mxGraphModel dx="645" dy="369" grid="1" gridSize="10" guides="1" tooltips="1" connect="1" arrows="1" fold="1" page="1" pageScale="1" pageWidth="827" pageHeight="1169" math="0" shadow="0">
      <root>
        <mxCell id="0" />
        <mxCell id="1" parent="0" />
        <mxCell id="2HhkDah7lS9jB4Bh0aEh-1" value="&lt;span style=&quot;color: rgb(0 , 0 , 0) ; font-family: &amp;#34;helvetica&amp;#34; ; font-style: normal ; font-weight: 400 ; letter-spacing: normal ; text-align: center ; text-indent: 0px ; text-transform: none ; word-spacing: 0px ; background-color: rgb(248 , 249 , 250) ; display: inline ; float: none ; font-size: 7px&quot;&gt;&lt;font style=&quot;font-size: 7px&quot;&gt;Conv x 3(256,19,19)&lt;/font&gt;&lt;/span&gt;" style="rounded=0;whiteSpace=wrap;html=1;strokeWidth=1;fontSize=7;" vertex="1" parent="1">
          <mxGeometry x="322" y="250" width="148" height="28" as="geometry" />
        </mxCell>
        <mxCell id="2HhkDah7lS9jB4Bh0aEh-2" value="" style="rounded=0;whiteSpace=wrap;html=1;" vertex="1" parent="1">
          <mxGeometry x="190" y="303" width="410" height="147" as="geometry" />
        </mxCell>
        <mxCell id="2HhkDah7lS9jB4Bh0aEh-3" value="&lt;font style=&quot;font-size: 12px&quot;&gt;MaxPooling&lt;br&gt;kernel_size=3,&lt;br&gt;stride=1&lt;/font&gt;" style="rounded=0;whiteSpace=wrap;html=1;" vertex="1" parent="1">
          <mxGeometry x="221" y="355" width="90" height="51.5" as="geometry" />
        </mxCell>
        <mxCell id="2HhkDah7lS9jB4Bh0aEh-6" value="" style="endArrow=classic;html=1;" edge="1" parent="1">
          <mxGeometry width="50" height="50" relative="1" as="geometry">
            <mxPoint x="266.25000000000006" y="331" as="sourcePoint" />
            <mxPoint x="265.75000000000006" y="355" as="targetPoint" />
          </mxGeometry>
        </mxCell>
        <mxCell id="2HhkDah7lS9jB4Bh0aEh-8" value="" style="endArrow=classic;html=1;" edge="1" parent="1">
          <mxGeometry width="50" height="50" relative="1" as="geometry">
            <mxPoint x="485.25" y="331" as="sourcePoint" />
            <mxPoint x="484.75" y="355" as="targetPoint" />
          </mxGeometry>
        </mxCell>
        <mxCell id="2HhkDah7lS9jB4Bh0aEh-9" value="" style="endArrow=classic;html=1;" edge="1" parent="1">
          <mxGeometry width="50" height="50" relative="1" as="geometry">
            <mxPoint x="375.25000000000006" y="331" as="sourcePoint" />
            <mxPoint x="374.75000000000006" y="355" as="targetPoint" />
          </mxGeometry>
        </mxCell>
        <mxCell id="2HhkDah7lS9jB4Bh0aEh-10" value="" style="endArrow=none;html=1;" edge="1" parent="1">
          <mxGeometry width="50" height="50" relative="1" as="geometry">
            <mxPoint x="396" y="331" as="sourcePoint" />
            <mxPoint x="396" y="279" as="targetPoint" />
          </mxGeometry>
        </mxCell>
        <mxCell id="2HhkDah7lS9jB4Bh0aEh-13" value="" style="endArrow=none;html=1;" edge="1" parent="1">
          <mxGeometry width="50" height="50" relative="1" as="geometry">
            <mxPoint x="266" y="430" as="sourcePoint" />
            <mxPoint x="265.79999999999995" y="406" as="targetPoint" />
          </mxGeometry>
        </mxCell>
        <mxCell id="2HhkDah7lS9jB4Bh0aEh-14" value="" style="endArrow=classic;html=1;" edge="1" parent="1">
          <mxGeometry width="50" height="50" relative="1" as="geometry">
            <mxPoint x="396" y="430" as="sourcePoint" />
            <mxPoint x="397" y="481" as="targetPoint" />
          </mxGeometry>
        </mxCell>
        <mxCell id="2HhkDah7lS9jB4Bh0aEh-15" value="&lt;font style=&quot;font-size: 19px&quot;&gt;SPP&lt;/font&gt;" style="text;html=1;resizable=0;autosize=1;align=center;verticalAlign=middle;points=[];fillColor=none;strokeColor=none;rounded=0;" vertex="1" parent="1">
          <mxGeometry x="194" y="315" width="50" height="20" as="geometry" />
        </mxCell>
        <mxCell id="2HhkDah7lS9jB4Bh0aEh-19" value="&lt;span style=&quot;color: rgb(0 , 0 , 0) ; font-family: &amp;#34;helvetica&amp;#34; ; font-style: normal ; font-weight: 400 ; letter-spacing: normal ; text-align: center ; text-indent: 0px ; text-transform: none ; word-spacing: 0px ; background-color: rgb(248 , 249 , 250) ; display: inline ; float: none ; font-size: 7px&quot;&gt;&lt;font style=&quot;font-size: 7px&quot;&gt;Concat + Conv x 3&lt;/font&gt;&lt;/span&gt;" style="rounded=0;whiteSpace=wrap;html=1;strokeWidth=1;fontSize=7;" vertex="1" parent="1">
          <mxGeometry x="322" y="480" width="148" height="28" as="geometry" />
        </mxCell>
        <mxCell id="2HhkDah7lS9jB4Bh0aEh-23" value="&lt;font style=&quot;font-size: 12px&quot;&gt;MaxPooling&lt;br&gt;kernel_size=7,&lt;br&gt;stride=1&lt;/font&gt;" style="rounded=0;whiteSpace=wrap;html=1;" vertex="1" parent="1">
          <mxGeometry x="330" y="355" width="90" height="51.5" as="geometry" />
        </mxCell>
        <mxCell id="2HhkDah7lS9jB4Bh0aEh-24" value="&lt;font style=&quot;font-size: 12px&quot;&gt;MaxPooling&lt;br&gt;kernel_size=9,&lt;br&gt;stride=1&lt;/font&gt;" style="rounded=0;whiteSpace=wrap;html=1;" vertex="1" parent="1">
          <mxGeometry x="440" y="355" width="90" height="51.5" as="geometry" />
        </mxCell>
        <mxCell id="2HhkDah7lS9jB4Bh0aEh-25" value="" style="endArrow=none;html=1;" edge="1" parent="1">
          <mxGeometry width="50" height="50" relative="1" as="geometry">
            <mxPoint x="266" y="331" as="sourcePoint" />
            <mxPoint x="570" y="331" as="targetPoint" />
          </mxGeometry>
        </mxCell>
        <mxCell id="2HhkDah7lS9jB4Bh0aEh-27" value="" style="endArrow=none;html=1;" edge="1" parent="1">
          <mxGeometry width="50" height="50" relative="1" as="geometry">
            <mxPoint x="570" y="430" as="sourcePoint" />
            <mxPoint x="266" y="430" as="targetPoint" />
          </mxGeometry>
        </mxCell>
        <mxCell id="2HhkDah7lS9jB4Bh0aEh-28" value="" style="endArrow=none;html=1;" edge="1" parent="1">
          <mxGeometry width="50" height="50" relative="1" as="geometry">
            <mxPoint x="485.0600000000001" y="430.5" as="sourcePoint" />
            <mxPoint x="484.85999999999996" y="406.5" as="targetPoint" />
          </mxGeometry>
        </mxCell>
        <mxCell id="2HhkDah7lS9jB4Bh0aEh-29" value="" style="endArrow=none;html=1;" edge="1" parent="1">
          <mxGeometry width="50" height="50" relative="1" as="geometry">
            <mxPoint x="375.0600000000001" y="430.5" as="sourcePoint" />
            <mxPoint x="374.85999999999996" y="406.5" as="targetPoint" />
          </mxGeometry>
        </mxCell>
        <mxCell id="2HhkDah7lS9jB4Bh0aEh-31" value="" style="endArrow=classic;html=1;" edge="1" parent="1">
          <mxGeometry width="50" height="50" relative="1" as="geometry">
            <mxPoint x="570" y="331" as="sourcePoint" />
            <mxPoint x="570" y="382" as="targetPoint" />
          </mxGeometry>
        </mxCell>
        <mxCell id="2HhkDah7lS9jB4Bh0aEh-32" value="" style="endArrow=none;html=1;" edge="1" parent="1">
          <mxGeometry width="50" height="50" relative="1" as="geometry">
            <mxPoint x="570" y="430" as="sourcePoint" />
            <mxPoint x="570" y="380" as="targetPoint" />
          </mxGeometry>
        </mxCell>
        <mxCell id="2HhkDah7lS9jB4Bh0aEh-33" value="Input(512,19,19)" style="rounded=0;whiteSpace=wrap;html=1;" vertex="1" parent="1">
          <mxGeometry x="343" y="200" width="104" height="30" as="geometry" />
        </mxCell>
        <mxCell id="2HhkDah7lS9jB4Bh0aEh-34" value="" style="endArrow=classic;html=1;" edge="1" parent="1">
          <mxGeometry width="50" height="50" relative="1" as="geometry">
            <mxPoint x="395.8" y="230" as="sourcePoint" />
            <mxPoint x="395.8" y="250" as="targetPoint" />
          </mxGeometry>
        </mxCell>
      </root>
    </mxGraphModel>
  </diagram>
</mxfile>
